<svg width="30" height="40" viewBox="0 0 30 40" fill="none" xmlns="http://www.w3.org/2000/svg">
<g opacity="0.8">
<path d="M27.5219 0.571289H9.50312C9.05511 0.571289 8.62543 0.749264 8.30864 1.06606C7.99184 1.38285 7.81386 1.81253 7.81386 2.26055V7.32833H2.74608C2.29807 7.32833 1.86839 7.50631 1.5516 7.8231C1.2348 8.13989 1.05682 8.56957 1.05682 9.01759V27.0364C1.05682 27.4844 1.2348 27.9141 1.5516 28.2309C1.86839 28.5477 2.29807 28.7256 2.74608 28.7256H20.7649C21.2128 28.7256 21.6426 28.5477 21.9594 28.2309C22.2762 27.9141 22.4541 27.4844 22.4541 27.0364V21.9686H27.5219C27.9699 21.9686 28.3996 21.7906 28.7164 21.4739C29.0332 21.1571 29.2112 20.7273 29.2112 20.2793V2.26055C29.2112 1.81253 29.0332 1.38285 28.7164 1.06606C28.3996 0.749264 27.9699 0.571289 27.5219 0.571289ZM19.0756 25.3471H4.43534V10.7068H19.0756V25.3471ZM25.8326 18.5901H22.4541V9.01759C22.4541 8.56957 22.2762 8.13989 21.9594 7.8231C21.6426 7.50631 21.2128 7.32833 20.7649 7.32833H11.1924V3.94981H25.8326V18.5901Z" fill="black" stroke="black" stroke-width="1.12617"/>
</g>
</svg>
