<svg width="43" height="43" viewBox="0 0 43 43" fill="none" xmlns="http://www.w3.org/2000/svg">
<path d="M12.546 9.93245C11.3645 9.93245 10.4056 10.8914 10.4056 12.0729V31.7646C10.4056 32.9461 11.3645 33.905 12.546 33.905H32.2376C33.4192 33.905 34.3781 32.9461 34.3781 31.7646V25.3434C34.3781 24.8892 34.5584 24.4536 34.8796 24.1326C35.2008 23.8114 35.6363 23.631 36.0904 23.631C36.5445 23.631 36.9801 23.8114 37.3011 24.1326C37.6223 24.4536 37.8027 24.8892 37.8027 25.3434V31.7646C37.8027 33.2405 37.2164 34.656 36.1727 35.6996C35.1291 36.7433 33.7136 37.3296 32.2376 37.3296H12.546C11.07 37.3296 9.65453 36.7433 8.61089 35.6996C7.56724 34.656 6.98093 33.2405 6.98093 31.7646V12.0729C6.98093 10.5969 7.56724 9.18143 8.61089 8.13778C9.65453 7.09413 11.07 6.50781 12.546 6.50781H18.9672C19.4213 6.50781 19.8568 6.68823 20.178 7.00935C20.499 7.33047 20.6795 7.766 20.6795 8.22014C20.6795 8.67427 20.499 9.10981 20.178 9.43093C19.8568 9.75205 19.4213 9.93245 18.9672 9.93245H12.546ZM25.8165 9.93245C25.3623 9.93245 24.9268 9.75205 24.6057 9.43093C24.2845 9.10981 24.1041 8.67427 24.1041 8.22014C24.1041 7.766 24.2845 7.33047 24.6057 7.00935C24.9268 6.68823 25.3623 6.50781 25.8165 6.50781H36.0904C36.5445 6.50781 36.9801 6.68823 37.3011 7.00935C37.6223 7.33047 37.8027 7.766 37.8027 8.22014V18.4941C37.8027 18.9482 37.6223 19.3837 37.3011 19.7049C36.9801 20.0259 36.5445 20.2064 36.0904 20.2064C35.6363 20.2064 35.2008 20.0259 34.8796 19.7049C34.5584 19.3837 34.3781 18.9482 34.3781 18.4941V12.3537L27.0271 19.7046C26.7041 20.0166 26.2716 20.1892 25.8226 20.1853C25.3737 20.1813 24.9442 20.0012 24.6267 19.6838C24.3092 19.3663 24.1291 18.9369 24.1253 18.4879C24.1213 18.0389 24.294 17.6065 24.6058 17.2835L31.9568 9.93245H25.8165Z" fill="white"/>
</svg>
